<mxfile host="Electron" agent="Mozilla/5.0 (Windows NT 10.0; Win64; x64) AppleWebKit/537.36 (KHTML, like Gecko) draw.io/24.7.8 Chrome/128.0.6613.36 Electron/32.0.1 Safari/537.36" version="24.7.8">
  <diagram name="Página-1" id="RcurYEzzs1K63uRC3h4T">
    <mxGraphModel dx="1861" dy="511" grid="1" gridSize="10" guides="1" tooltips="1" connect="1" arrows="1" fold="1" page="1" pageScale="1" pageWidth="827" pageHeight="1169" math="0" shadow="0">
      <root>
        <mxCell id="0" />
        <mxCell id="1" parent="0" />
        <mxCell id="bE4b3YdhAkr7-SQ0jvC5-12" style="edgeStyle=orthogonalEdgeStyle;rounded=0;orthogonalLoop=1;jettySize=auto;html=1;exitX=1;exitY=0.25;exitDx=0;exitDy=0;entryX=0.5;entryY=0;entryDx=0;entryDy=0;" edge="1" parent="1" source="bE4b3YdhAkr7-SQ0jvC5-1" target="bE4b3YdhAkr7-SQ0jvC5-6">
          <mxGeometry relative="1" as="geometry">
            <mxPoint x="180" y="60" as="targetPoint" />
          </mxGeometry>
        </mxCell>
        <mxCell id="bE4b3YdhAkr7-SQ0jvC5-13" style="edgeStyle=orthogonalEdgeStyle;rounded=0;orthogonalLoop=1;jettySize=auto;html=1;entryX=0.5;entryY=0;entryDx=0;entryDy=0;" edge="1" parent="1" source="bE4b3YdhAkr7-SQ0jvC5-1" target="bE4b3YdhAkr7-SQ0jvC5-5">
          <mxGeometry relative="1" as="geometry" />
        </mxCell>
        <mxCell id="bE4b3YdhAkr7-SQ0jvC5-23" style="edgeStyle=orthogonalEdgeStyle;rounded=0;orthogonalLoop=1;jettySize=auto;html=1;exitX=1;exitY=0.75;exitDx=0;exitDy=0;entryX=0.5;entryY=0;entryDx=0;entryDy=0;" edge="1" parent="1" source="bE4b3YdhAkr7-SQ0jvC5-1" target="bE4b3YdhAkr7-SQ0jvC5-21">
          <mxGeometry relative="1" as="geometry" />
        </mxCell>
        <mxCell id="bE4b3YdhAkr7-SQ0jvC5-1" value="Vehículo" style="rounded=0;whiteSpace=wrap;html=1;" vertex="1" parent="1">
          <mxGeometry x="65" y="10" width="90" height="70" as="geometry" />
        </mxCell>
        <mxCell id="bE4b3YdhAkr7-SQ0jvC5-46" style="edgeStyle=orthogonalEdgeStyle;rounded=0;orthogonalLoop=1;jettySize=auto;html=1;exitX=0.25;exitY=1;exitDx=0;exitDy=0;entryX=0.5;entryY=0;entryDx=0;entryDy=0;" edge="1" parent="1" source="bE4b3YdhAkr7-SQ0jvC5-2" target="bE4b3YdhAkr7-SQ0jvC5-28">
          <mxGeometry relative="1" as="geometry" />
        </mxCell>
        <mxCell id="bE4b3YdhAkr7-SQ0jvC5-2" value="Servicio de Agendamiento" style="rounded=0;whiteSpace=wrap;html=1;" vertex="1" parent="1">
          <mxGeometry x="50" y="210" width="120" height="60" as="geometry" />
        </mxCell>
        <mxCell id="bE4b3YdhAkr7-SQ0jvC5-80" style="edgeStyle=orthogonalEdgeStyle;rounded=0;orthogonalLoop=1;jettySize=auto;html=1;exitX=0.5;exitY=1;exitDx=0;exitDy=0;entryX=1;entryY=0.5;entryDx=0;entryDy=0;" edge="1" parent="1" source="bE4b3YdhAkr7-SQ0jvC5-3" target="bE4b3YdhAkr7-SQ0jvC5-30">
          <mxGeometry relative="1" as="geometry" />
        </mxCell>
        <mxCell id="bE4b3YdhAkr7-SQ0jvC5-120" style="edgeStyle=orthogonalEdgeStyle;rounded=0;orthogonalLoop=1;jettySize=auto;html=1;exitX=0.75;exitY=1;exitDx=0;exitDy=0;" edge="1" parent="1" source="bE4b3YdhAkr7-SQ0jvC5-3" target="bE4b3YdhAkr7-SQ0jvC5-122">
          <mxGeometry relative="1" as="geometry">
            <mxPoint x="370" y="370" as="targetPoint" />
            <Array as="points">
              <mxPoint x="320" y="320" />
              <mxPoint x="430" y="320" />
            </Array>
          </mxGeometry>
        </mxCell>
        <mxCell id="bE4b3YdhAkr7-SQ0jvC5-3" value="Marcas" style="rounded=0;whiteSpace=wrap;html=1;" vertex="1" parent="1">
          <mxGeometry x="230" y="210" width="120" height="60" as="geometry" />
        </mxCell>
        <mxCell id="bE4b3YdhAkr7-SQ0jvC5-49" style="edgeStyle=orthogonalEdgeStyle;rounded=0;orthogonalLoop=1;jettySize=auto;html=1;exitX=0.5;exitY=1;exitDx=0;exitDy=0;entryX=0.5;entryY=0;entryDx=0;entryDy=0;" edge="1" parent="1" source="bE4b3YdhAkr7-SQ0jvC5-4" target="bE4b3YdhAkr7-SQ0jvC5-31">
          <mxGeometry relative="1" as="geometry" />
        </mxCell>
        <mxCell id="bE4b3YdhAkr7-SQ0jvC5-4" value="Trabajos de Reparaciones" style="rounded=0;whiteSpace=wrap;html=1;" vertex="1" parent="1">
          <mxGeometry x="530" y="280" width="120" height="60" as="geometry" />
        </mxCell>
        <mxCell id="bE4b3YdhAkr7-SQ0jvC5-11" style="edgeStyle=orthogonalEdgeStyle;rounded=0;orthogonalLoop=1;jettySize=auto;html=1;entryX=0.5;entryY=0;entryDx=0;entryDy=0;" edge="1" parent="1" source="bE4b3YdhAkr7-SQ0jvC5-5" target="bE4b3YdhAkr7-SQ0jvC5-4">
          <mxGeometry relative="1" as="geometry" />
        </mxCell>
        <mxCell id="bE4b3YdhAkr7-SQ0jvC5-5" value="" style="rhombus;whiteSpace=wrap;html=1;" vertex="1" parent="1">
          <mxGeometry x="550" y="98" width="80" height="80" as="geometry" />
        </mxCell>
        <mxCell id="bE4b3YdhAkr7-SQ0jvC5-10" style="edgeStyle=orthogonalEdgeStyle;rounded=0;orthogonalLoop=1;jettySize=auto;html=1;" edge="1" parent="1" source="bE4b3YdhAkr7-SQ0jvC5-6" target="bE4b3YdhAkr7-SQ0jvC5-3">
          <mxGeometry relative="1" as="geometry" />
        </mxCell>
        <mxCell id="bE4b3YdhAkr7-SQ0jvC5-6" value="" style="rhombus;whiteSpace=wrap;html=1;" vertex="1" parent="1">
          <mxGeometry x="250" y="100" width="80" height="80" as="geometry" />
        </mxCell>
        <mxCell id="bE4b3YdhAkr7-SQ0jvC5-9" style="edgeStyle=orthogonalEdgeStyle;rounded=0;orthogonalLoop=1;jettySize=auto;html=1;exitX=0.5;exitY=1;exitDx=0;exitDy=0;entryX=0.5;entryY=0;entryDx=0;entryDy=0;" edge="1" parent="1" source="bE4b3YdhAkr7-SQ0jvC5-7" target="bE4b3YdhAkr7-SQ0jvC5-2">
          <mxGeometry relative="1" as="geometry" />
        </mxCell>
        <mxCell id="bE4b3YdhAkr7-SQ0jvC5-7" value="" style="rhombus;whiteSpace=wrap;html=1;" vertex="1" parent="1">
          <mxGeometry x="70" y="110" width="80" height="80" as="geometry" />
        </mxCell>
        <mxCell id="bE4b3YdhAkr7-SQ0jvC5-8" value="" style="endArrow=none;html=1;rounded=0;exitX=0.5;exitY=0;exitDx=0;exitDy=0;entryX=0.5;entryY=1;entryDx=0;entryDy=0;" edge="1" parent="1" source="bE4b3YdhAkr7-SQ0jvC5-7" target="bE4b3YdhAkr7-SQ0jvC5-1">
          <mxGeometry width="50" height="50" relative="1" as="geometry">
            <mxPoint x="75" y="130" as="sourcePoint" />
            <mxPoint x="125" y="80" as="targetPoint" />
          </mxGeometry>
        </mxCell>
        <mxCell id="bE4b3YdhAkr7-SQ0jvC5-14" value="1" style="text;html=1;align=center;verticalAlign=middle;resizable=0;points=[];autosize=1;strokeColor=none;fillColor=none;" vertex="1" parent="1">
          <mxGeometry x="115" y="98" width="30" height="30" as="geometry" />
        </mxCell>
        <mxCell id="bE4b3YdhAkr7-SQ0jvC5-15" value="1" style="text;html=1;align=center;verticalAlign=middle;resizable=0;points=[];autosize=1;strokeColor=none;fillColor=none;" vertex="1" parent="1">
          <mxGeometry x="560" y="60" width="30" height="30" as="geometry" />
        </mxCell>
        <mxCell id="bE4b3YdhAkr7-SQ0jvC5-16" value="1" style="text;html=1;align=center;verticalAlign=middle;resizable=0;points=[];autosize=1;strokeColor=none;fillColor=none;" vertex="1" parent="1">
          <mxGeometry x="300" y="90" width="30" height="30" as="geometry" />
        </mxCell>
        <mxCell id="bE4b3YdhAkr7-SQ0jvC5-17" value="N" style="text;html=1;align=center;verticalAlign=middle;resizable=0;points=[];autosize=1;strokeColor=none;fillColor=none;" vertex="1" parent="1">
          <mxGeometry x="115" y="188" width="30" height="30" as="geometry" />
        </mxCell>
        <mxCell id="bE4b3YdhAkr7-SQ0jvC5-18" value="N" style="text;html=1;align=center;verticalAlign=middle;resizable=0;points=[];autosize=1;strokeColor=none;fillColor=none;" vertex="1" parent="1">
          <mxGeometry x="300" y="188" width="30" height="30" as="geometry" />
        </mxCell>
        <mxCell id="bE4b3YdhAkr7-SQ0jvC5-19" value="N" style="text;html=1;align=center;verticalAlign=middle;resizable=0;points=[];autosize=1;strokeColor=none;fillColor=none;" vertex="1" parent="1">
          <mxGeometry x="560" y="200" width="30" height="30" as="geometry" />
        </mxCell>
        <mxCell id="bE4b3YdhAkr7-SQ0jvC5-27" style="edgeStyle=orthogonalEdgeStyle;rounded=0;orthogonalLoop=1;jettySize=auto;html=1;entryX=0.5;entryY=0;entryDx=0;entryDy=0;" edge="1" parent="1" source="bE4b3YdhAkr7-SQ0jvC5-21" target="bE4b3YdhAkr7-SQ0jvC5-24">
          <mxGeometry relative="1" as="geometry" />
        </mxCell>
        <mxCell id="bE4b3YdhAkr7-SQ0jvC5-21" value="" style="rhombus;whiteSpace=wrap;html=1;" vertex="1" parent="1">
          <mxGeometry x="670" y="100" width="80" height="70" as="geometry" />
        </mxCell>
        <mxCell id="bE4b3YdhAkr7-SQ0jvC5-24" value="Piezas" style="rounded=0;whiteSpace=wrap;html=1;" vertex="1" parent="1">
          <mxGeometry x="650" y="210" width="120" height="60" as="geometry" />
        </mxCell>
        <mxCell id="bE4b3YdhAkr7-SQ0jvC5-25" value="1" style="text;html=1;align=center;verticalAlign=middle;resizable=0;points=[];autosize=1;strokeColor=none;fillColor=none;" vertex="1" parent="1">
          <mxGeometry x="730" y="90" width="30" height="30" as="geometry" />
        </mxCell>
        <mxCell id="bE4b3YdhAkr7-SQ0jvC5-26" value="N" style="text;html=1;align=center;verticalAlign=middle;resizable=0;points=[];autosize=1;strokeColor=none;fillColor=none;" vertex="1" parent="1">
          <mxGeometry x="730" y="180" width="30" height="30" as="geometry" />
        </mxCell>
        <mxCell id="bE4b3YdhAkr7-SQ0jvC5-55" style="edgeStyle=orthogonalEdgeStyle;rounded=0;orthogonalLoop=1;jettySize=auto;html=1;entryX=0.5;entryY=0;entryDx=0;entryDy=0;" edge="1" parent="1" source="bE4b3YdhAkr7-SQ0jvC5-28" target="bE4b3YdhAkr7-SQ0jvC5-33">
          <mxGeometry relative="1" as="geometry" />
        </mxCell>
        <mxCell id="bE4b3YdhAkr7-SQ0jvC5-28" value="" style="rhombus;whiteSpace=wrap;html=1;" vertex="1" parent="1">
          <mxGeometry x="-100" y="310" width="80" height="80" as="geometry" />
        </mxCell>
        <mxCell id="bE4b3YdhAkr7-SQ0jvC5-82" style="edgeStyle=orthogonalEdgeStyle;rounded=0;orthogonalLoop=1;jettySize=auto;html=1;exitX=0.5;exitY=1;exitDx=0;exitDy=0;entryX=0;entryY=0.5;entryDx=0;entryDy=0;" edge="1" parent="1" source="bE4b3YdhAkr7-SQ0jvC5-30" target="bE4b3YdhAkr7-SQ0jvC5-35">
          <mxGeometry relative="1" as="geometry" />
        </mxCell>
        <mxCell id="bE4b3YdhAkr7-SQ0jvC5-30" value="" style="rhombus;whiteSpace=wrap;html=1;" vertex="1" parent="1">
          <mxGeometry x="95" y="320" width="80" height="80" as="geometry" />
        </mxCell>
        <mxCell id="bE4b3YdhAkr7-SQ0jvC5-52" style="edgeStyle=orthogonalEdgeStyle;rounded=0;orthogonalLoop=1;jettySize=auto;html=1;exitX=0.5;exitY=1;exitDx=0;exitDy=0;entryX=0.5;entryY=0;entryDx=0;entryDy=0;" edge="1" parent="1" source="bE4b3YdhAkr7-SQ0jvC5-31" target="bE4b3YdhAkr7-SQ0jvC5-36">
          <mxGeometry relative="1" as="geometry" />
        </mxCell>
        <mxCell id="bE4b3YdhAkr7-SQ0jvC5-31" value="" style="rhombus;whiteSpace=wrap;html=1;" vertex="1" parent="1">
          <mxGeometry x="550" y="365" width="80" height="80" as="geometry" />
        </mxCell>
        <mxCell id="bE4b3YdhAkr7-SQ0jvC5-81" style="edgeStyle=orthogonalEdgeStyle;rounded=0;orthogonalLoop=1;jettySize=auto;html=1;exitX=1;exitY=0.5;exitDx=0;exitDy=0;entryX=0;entryY=0.5;entryDx=0;entryDy=0;" edge="1" parent="1" source="bE4b3YdhAkr7-SQ0jvC5-33" target="bE4b3YdhAkr7-SQ0jvC5-30">
          <mxGeometry relative="1" as="geometry" />
        </mxCell>
        <mxCell id="bE4b3YdhAkr7-SQ0jvC5-114" style="edgeStyle=orthogonalEdgeStyle;rounded=0;orthogonalLoop=1;jettySize=auto;html=1;" edge="1" parent="1" source="bE4b3YdhAkr7-SQ0jvC5-33" target="bE4b3YdhAkr7-SQ0jvC5-108">
          <mxGeometry relative="1" as="geometry">
            <Array as="points">
              <mxPoint x="-45" y="520" />
              <mxPoint x="-45" y="520" />
            </Array>
          </mxGeometry>
        </mxCell>
        <mxCell id="bE4b3YdhAkr7-SQ0jvC5-115" style="edgeStyle=orthogonalEdgeStyle;rounded=0;orthogonalLoop=1;jettySize=auto;html=1;exitX=0.25;exitY=1;exitDx=0;exitDy=0;entryX=0.5;entryY=0;entryDx=0;entryDy=0;" edge="1" parent="1" source="bE4b3YdhAkr7-SQ0jvC5-33" target="bE4b3YdhAkr7-SQ0jvC5-109">
          <mxGeometry relative="1" as="geometry" />
        </mxCell>
        <mxCell id="bE4b3YdhAkr7-SQ0jvC5-33" value="Cliente" style="rounded=0;whiteSpace=wrap;html=1;" vertex="1" parent="1">
          <mxGeometry x="-120" y="440" width="120" height="60" as="geometry" />
        </mxCell>
        <mxCell id="bE4b3YdhAkr7-SQ0jvC5-57" style="edgeStyle=orthogonalEdgeStyle;rounded=0;orthogonalLoop=1;jettySize=auto;html=1;exitX=0.5;exitY=1;exitDx=0;exitDy=0;entryX=0.5;entryY=0;entryDx=0;entryDy=0;" edge="1" parent="1" source="bE4b3YdhAkr7-SQ0jvC5-35" target="bE4b3YdhAkr7-SQ0jvC5-41">
          <mxGeometry relative="1" as="geometry" />
        </mxCell>
        <mxCell id="bE4b3YdhAkr7-SQ0jvC5-35" value="Empleados" style="rounded=0;whiteSpace=wrap;html=1;" vertex="1" parent="1">
          <mxGeometry x="230" y="440" width="120" height="60" as="geometry" />
        </mxCell>
        <mxCell id="bE4b3YdhAkr7-SQ0jvC5-85" style="edgeStyle=orthogonalEdgeStyle;rounded=0;orthogonalLoop=1;jettySize=auto;html=1;exitX=0.5;exitY=1;exitDx=0;exitDy=0;entryX=0.5;entryY=0;entryDx=0;entryDy=0;" edge="1" parent="1" source="bE4b3YdhAkr7-SQ0jvC5-36" target="bE4b3YdhAkr7-SQ0jvC5-38">
          <mxGeometry relative="1" as="geometry" />
        </mxCell>
        <mxCell id="bE4b3YdhAkr7-SQ0jvC5-36" value="Proveedores" style="rounded=0;whiteSpace=wrap;html=1;" vertex="1" parent="1">
          <mxGeometry x="530" y="485" width="120" height="60" as="geometry" />
        </mxCell>
        <mxCell id="bE4b3YdhAkr7-SQ0jvC5-86" style="edgeStyle=orthogonalEdgeStyle;rounded=0;orthogonalLoop=1;jettySize=auto;html=1;" edge="1" parent="1" source="bE4b3YdhAkr7-SQ0jvC5-38" target="bE4b3YdhAkr7-SQ0jvC5-39">
          <mxGeometry relative="1" as="geometry" />
        </mxCell>
        <mxCell id="bE4b3YdhAkr7-SQ0jvC5-38" value="" style="rhombus;whiteSpace=wrap;html=1;" vertex="1" parent="1">
          <mxGeometry x="550" y="585" width="80" height="70" as="geometry" />
        </mxCell>
        <mxCell id="bE4b3YdhAkr7-SQ0jvC5-39" value="Rating Proveedores" style="rounded=0;whiteSpace=wrap;html=1;" vertex="1" parent="1">
          <mxGeometry x="530" y="720" width="120" height="60" as="geometry" />
        </mxCell>
        <mxCell id="bE4b3YdhAkr7-SQ0jvC5-91" style="edgeStyle=orthogonalEdgeStyle;rounded=0;orthogonalLoop=1;jettySize=auto;html=1;exitX=0.25;exitY=1;exitDx=0;exitDy=0;entryX=0.5;entryY=0;entryDx=0;entryDy=0;" edge="1" parent="1" source="bE4b3YdhAkr7-SQ0jvC5-40" target="bE4b3YdhAkr7-SQ0jvC5-88">
          <mxGeometry relative="1" as="geometry" />
        </mxCell>
        <mxCell id="bE4b3YdhAkr7-SQ0jvC5-92" style="edgeStyle=orthogonalEdgeStyle;rounded=0;orthogonalLoop=1;jettySize=auto;html=1;exitX=0.5;exitY=1;exitDx=0;exitDy=0;entryX=0.5;entryY=0;entryDx=0;entryDy=0;" edge="1" parent="1" source="bE4b3YdhAkr7-SQ0jvC5-40" target="bE4b3YdhAkr7-SQ0jvC5-89">
          <mxGeometry relative="1" as="geometry" />
        </mxCell>
        <mxCell id="bE4b3YdhAkr7-SQ0jvC5-95" style="edgeStyle=orthogonalEdgeStyle;rounded=0;orthogonalLoop=1;jettySize=auto;html=1;exitX=0;exitY=0.5;exitDx=0;exitDy=0;entryX=0.5;entryY=1;entryDx=0;entryDy=0;" edge="1" parent="1" source="bE4b3YdhAkr7-SQ0jvC5-40" target="bE4b3YdhAkr7-SQ0jvC5-94">
          <mxGeometry relative="1" as="geometry" />
        </mxCell>
        <mxCell id="bE4b3YdhAkr7-SQ0jvC5-40" value="Ventas" style="rounded=0;whiteSpace=wrap;html=1;" vertex="1" parent="1">
          <mxGeometry x="230" y="650" width="120" height="60" as="geometry" />
        </mxCell>
        <mxCell id="bE4b3YdhAkr7-SQ0jvC5-62" style="edgeStyle=orthogonalEdgeStyle;rounded=0;orthogonalLoop=1;jettySize=auto;html=1;" edge="1" parent="1" source="bE4b3YdhAkr7-SQ0jvC5-41" target="bE4b3YdhAkr7-SQ0jvC5-40">
          <mxGeometry relative="1" as="geometry" />
        </mxCell>
        <mxCell id="bE4b3YdhAkr7-SQ0jvC5-125" style="edgeStyle=orthogonalEdgeStyle;rounded=0;orthogonalLoop=1;jettySize=auto;html=1;exitX=1;exitY=0.5;exitDx=0;exitDy=0;entryX=0;entryY=0.5;entryDx=0;entryDy=0;" edge="1" parent="1" source="bE4b3YdhAkr7-SQ0jvC5-41" target="bE4b3YdhAkr7-SQ0jvC5-4">
          <mxGeometry relative="1" as="geometry">
            <Array as="points">
              <mxPoint x="520" y="570" />
              <mxPoint x="520" y="310" />
            </Array>
          </mxGeometry>
        </mxCell>
        <mxCell id="bE4b3YdhAkr7-SQ0jvC5-41" value="" style="rhombus;whiteSpace=wrap;html=1;" vertex="1" parent="1">
          <mxGeometry x="250" y="530" width="80" height="80" as="geometry" />
        </mxCell>
        <mxCell id="bE4b3YdhAkr7-SQ0jvC5-64" value="N" style="text;html=1;align=center;verticalAlign=middle;resizable=0;points=[];autosize=1;strokeColor=none;fillColor=none;" vertex="1" parent="1">
          <mxGeometry x="-60" y="290" width="30" height="30" as="geometry" />
        </mxCell>
        <mxCell id="bE4b3YdhAkr7-SQ0jvC5-69" value="1" style="text;html=1;align=center;verticalAlign=middle;resizable=0;points=[];autosize=1;strokeColor=none;fillColor=none;" vertex="1" parent="1">
          <mxGeometry x="300" y="290" width="30" height="30" as="geometry" />
        </mxCell>
        <mxCell id="bE4b3YdhAkr7-SQ0jvC5-70" value="1" style="text;html=1;align=center;verticalAlign=middle;resizable=0;points=[];autosize=1;strokeColor=none;fillColor=none;" vertex="1" parent="1">
          <mxGeometry x="300" y="500" width="30" height="30" as="geometry" />
        </mxCell>
        <mxCell id="bE4b3YdhAkr7-SQ0jvC5-71" value="N" style="text;html=1;align=center;verticalAlign=middle;resizable=0;points=[];autosize=1;strokeColor=none;fillColor=none;" vertex="1" parent="1">
          <mxGeometry x="150" y="420" width="30" height="30" as="geometry" />
        </mxCell>
        <mxCell id="bE4b3YdhAkr7-SQ0jvC5-72" value="N" style="text;html=1;align=center;verticalAlign=middle;resizable=0;points=[];autosize=1;strokeColor=none;fillColor=none;" vertex="1" parent="1">
          <mxGeometry x="300" y="610" width="30" height="30" as="geometry" />
        </mxCell>
        <mxCell id="bE4b3YdhAkr7-SQ0jvC5-73" value="1" style="text;html=1;align=center;verticalAlign=middle;resizable=0;points=[];autosize=1;strokeColor=none;fillColor=none;" vertex="1" parent="1">
          <mxGeometry x="560" y="665" width="30" height="30" as="geometry" />
        </mxCell>
        <mxCell id="bE4b3YdhAkr7-SQ0jvC5-74" value="N" style="text;html=1;align=center;verticalAlign=middle;resizable=0;points=[];autosize=1;strokeColor=none;fillColor=none;" vertex="1" parent="1">
          <mxGeometry x="560" y="550" width="30" height="30" as="geometry" />
        </mxCell>
        <mxCell id="bE4b3YdhAkr7-SQ0jvC5-77" value="1" style="text;html=1;align=center;verticalAlign=middle;resizable=0;points=[];autosize=1;strokeColor=none;fillColor=none;" vertex="1" parent="1">
          <mxGeometry x="-60" y="410" width="30" height="30" as="geometry" />
        </mxCell>
        <mxCell id="bE4b3YdhAkr7-SQ0jvC5-83" value="N" style="text;html=1;align=center;verticalAlign=middle;resizable=0;points=[];autosize=1;strokeColor=none;fillColor=none;" vertex="1" parent="1">
          <mxGeometry x="550" y="340" width="30" height="30" as="geometry" />
        </mxCell>
        <mxCell id="bE4b3YdhAkr7-SQ0jvC5-84" value="1" style="text;html=1;align=center;verticalAlign=middle;resizable=0;points=[];autosize=1;strokeColor=none;fillColor=none;" vertex="1" parent="1">
          <mxGeometry x="560" y="445" width="30" height="30" as="geometry" />
        </mxCell>
        <mxCell id="bE4b3YdhAkr7-SQ0jvC5-105" style="edgeStyle=orthogonalEdgeStyle;rounded=0;orthogonalLoop=1;jettySize=auto;html=1;exitX=0.5;exitY=1;exitDx=0;exitDy=0;" edge="1" parent="1" source="bE4b3YdhAkr7-SQ0jvC5-88" target="bE4b3YdhAkr7-SQ0jvC5-104">
          <mxGeometry relative="1" as="geometry" />
        </mxCell>
        <mxCell id="bE4b3YdhAkr7-SQ0jvC5-88" value="" style="rhombus;whiteSpace=wrap;html=1;" vertex="1" parent="1">
          <mxGeometry x="80" y="810" width="80" height="80" as="geometry" />
        </mxCell>
        <mxCell id="bE4b3YdhAkr7-SQ0jvC5-106" style="edgeStyle=orthogonalEdgeStyle;rounded=0;orthogonalLoop=1;jettySize=auto;html=1;entryX=0.5;entryY=0;entryDx=0;entryDy=0;" edge="1" parent="1" source="bE4b3YdhAkr7-SQ0jvC5-89" target="bE4b3YdhAkr7-SQ0jvC5-103">
          <mxGeometry relative="1" as="geometry" />
        </mxCell>
        <mxCell id="bE4b3YdhAkr7-SQ0jvC5-89" value="" style="rhombus;whiteSpace=wrap;html=1;" vertex="1" parent="1">
          <mxGeometry x="250" y="810" width="80" height="80" as="geometry" />
        </mxCell>
        <mxCell id="bE4b3YdhAkr7-SQ0jvC5-107" style="edgeStyle=orthogonalEdgeStyle;rounded=0;orthogonalLoop=1;jettySize=auto;html=1;entryX=1;entryY=0.75;entryDx=0;entryDy=0;" edge="1" parent="1" source="bE4b3YdhAkr7-SQ0jvC5-94" target="bE4b3YdhAkr7-SQ0jvC5-33">
          <mxGeometry relative="1" as="geometry">
            <Array as="points">
              <mxPoint x="140" y="485" />
            </Array>
          </mxGeometry>
        </mxCell>
        <mxCell id="bE4b3YdhAkr7-SQ0jvC5-94" value="" style="rhombus;whiteSpace=wrap;html=1;" vertex="1" parent="1">
          <mxGeometry x="100" y="525" width="80" height="80" as="geometry" />
        </mxCell>
        <mxCell id="bE4b3YdhAkr7-SQ0jvC5-97" value="1" style="text;html=1;align=center;verticalAlign=middle;resizable=0;points=[];autosize=1;strokeColor=none;fillColor=none;" vertex="1" parent="1">
          <mxGeometry x="145" y="650" width="30" height="30" as="geometry" />
        </mxCell>
        <mxCell id="bE4b3YdhAkr7-SQ0jvC5-98" value="1" style="text;html=1;align=center;verticalAlign=middle;resizable=0;points=[];autosize=1;strokeColor=none;fillColor=none;" vertex="1" parent="1">
          <mxGeometry x="230" y="720" width="30" height="30" as="geometry" />
        </mxCell>
        <mxCell id="bE4b3YdhAkr7-SQ0jvC5-99" value="1" style="text;html=1;align=center;verticalAlign=middle;resizable=0;points=[];autosize=1;strokeColor=none;fillColor=none;" vertex="1" parent="1">
          <mxGeometry x="290" y="720" width="30" height="30" as="geometry" />
        </mxCell>
        <mxCell id="bE4b3YdhAkr7-SQ0jvC5-100" value="N" style="text;html=1;align=center;verticalAlign=middle;resizable=0;points=[];autosize=1;strokeColor=none;fillColor=none;" vertex="1" parent="1">
          <mxGeometry x="85" y="455" width="30" height="30" as="geometry" />
        </mxCell>
        <mxCell id="bE4b3YdhAkr7-SQ0jvC5-101" value="N" style="text;html=1;align=center;verticalAlign=middle;resizable=0;points=[];autosize=1;strokeColor=none;fillColor=none;" vertex="1" parent="1">
          <mxGeometry x="70" y="910" width="30" height="30" as="geometry" />
        </mxCell>
        <mxCell id="bE4b3YdhAkr7-SQ0jvC5-102" value="N" style="text;html=1;align=center;verticalAlign=middle;resizable=0;points=[];autosize=1;strokeColor=none;fillColor=none;" vertex="1" parent="1">
          <mxGeometry x="310" y="910" width="30" height="30" as="geometry" />
        </mxCell>
        <mxCell id="bE4b3YdhAkr7-SQ0jvC5-103" value="Grantía" style="rounded=0;whiteSpace=wrap;html=1;" vertex="1" parent="1">
          <mxGeometry x="230" y="970" width="120" height="60" as="geometry" />
        </mxCell>
        <mxCell id="bE4b3YdhAkr7-SQ0jvC5-104" value="Promoción" style="rounded=0;whiteSpace=wrap;html=1;" vertex="1" parent="1">
          <mxGeometry x="60" y="970" width="120" height="60" as="geometry" />
        </mxCell>
        <mxCell id="bE4b3YdhAkr7-SQ0jvC5-112" style="edgeStyle=orthogonalEdgeStyle;rounded=0;orthogonalLoop=1;jettySize=auto;html=1;" edge="1" parent="1" source="bE4b3YdhAkr7-SQ0jvC5-108" target="bE4b3YdhAkr7-SQ0jvC5-110">
          <mxGeometry relative="1" as="geometry" />
        </mxCell>
        <mxCell id="bE4b3YdhAkr7-SQ0jvC5-108" value="" style="rhombus;whiteSpace=wrap;html=1;" vertex="1" parent="1">
          <mxGeometry x="-85" y="570" width="80" height="80" as="geometry" />
        </mxCell>
        <mxCell id="bE4b3YdhAkr7-SQ0jvC5-113" style="edgeStyle=orthogonalEdgeStyle;rounded=0;orthogonalLoop=1;jettySize=auto;html=1;" edge="1" parent="1" source="bE4b3YdhAkr7-SQ0jvC5-109" target="bE4b3YdhAkr7-SQ0jvC5-111">
          <mxGeometry relative="1" as="geometry" />
        </mxCell>
        <mxCell id="bE4b3YdhAkr7-SQ0jvC5-109" value="" style="rhombus;whiteSpace=wrap;html=1;" vertex="1" parent="1">
          <mxGeometry x="-250" y="570" width="80" height="80" as="geometry" />
        </mxCell>
        <mxCell id="bE4b3YdhAkr7-SQ0jvC5-110" value="Feed Back Cliente" style="rounded=0;whiteSpace=wrap;html=1;" vertex="1" parent="1">
          <mxGeometry x="-105" y="705" width="120" height="60" as="geometry" />
        </mxCell>
        <mxCell id="bE4b3YdhAkr7-SQ0jvC5-111" value="Seguros" style="rounded=0;whiteSpace=wrap;html=1;" vertex="1" parent="1">
          <mxGeometry x="-270" y="705" width="120" height="60" as="geometry" />
        </mxCell>
        <mxCell id="bE4b3YdhAkr7-SQ0jvC5-116" value="1" style="text;html=1;align=center;verticalAlign=middle;resizable=0;points=[];autosize=1;strokeColor=none;fillColor=none;" vertex="1" parent="1">
          <mxGeometry x="-50" y="495" width="30" height="30" as="geometry" />
        </mxCell>
        <mxCell id="bE4b3YdhAkr7-SQ0jvC5-117" value="1" style="text;html=1;align=center;verticalAlign=middle;resizable=0;points=[];autosize=1;strokeColor=none;fillColor=none;" vertex="1" parent="1">
          <mxGeometry x="-160" y="500" width="30" height="30" as="geometry" />
        </mxCell>
        <mxCell id="bE4b3YdhAkr7-SQ0jvC5-118" value="N" style="text;html=1;align=center;verticalAlign=middle;resizable=0;points=[];autosize=1;strokeColor=none;fillColor=none;" vertex="1" parent="1">
          <mxGeometry x="-50" y="665" width="30" height="30" as="geometry" />
        </mxCell>
        <mxCell id="bE4b3YdhAkr7-SQ0jvC5-119" value="N" style="text;html=1;align=center;verticalAlign=middle;resizable=0;points=[];autosize=1;strokeColor=none;fillColor=none;" vertex="1" parent="1">
          <mxGeometry x="-210" y="660" width="30" height="30" as="geometry" />
        </mxCell>
        <mxCell id="bE4b3YdhAkr7-SQ0jvC5-124" style="edgeStyle=orthogonalEdgeStyle;rounded=0;orthogonalLoop=1;jettySize=auto;html=1;exitX=0.5;exitY=1;exitDx=0;exitDy=0;entryX=0.5;entryY=0;entryDx=0;entryDy=0;" edge="1" parent="1" source="bE4b3YdhAkr7-SQ0jvC5-122" target="bE4b3YdhAkr7-SQ0jvC5-123">
          <mxGeometry relative="1" as="geometry" />
        </mxCell>
        <mxCell id="bE4b3YdhAkr7-SQ0jvC5-122" value="" style="rhombus;whiteSpace=wrap;html=1;" vertex="1" parent="1">
          <mxGeometry x="390" y="330" width="80" height="80" as="geometry" />
        </mxCell>
        <mxCell id="bE4b3YdhAkr7-SQ0jvC5-123" value="Reporte Financiero" style="rounded=0;whiteSpace=wrap;html=1;" vertex="1" parent="1">
          <mxGeometry x="370" y="440" width="120" height="60" as="geometry" />
        </mxCell>
        <mxCell id="bE4b3YdhAkr7-SQ0jvC5-126" value="N" style="text;html=1;align=center;verticalAlign=middle;resizable=0;points=[];autosize=1;strokeColor=none;fillColor=none;" vertex="1" parent="1">
          <mxGeometry x="414" y="540" width="30" height="30" as="geometry" />
        </mxCell>
      </root>
    </mxGraphModel>
  </diagram>
</mxfile>
